<svg id="Grupo_45" data-name="Grupo 45" xmlns="http://www.w3.org/2000/svg" xmlns:xlink="http://www.w3.org/1999/xlink" width="302.174" height="47.145" viewBox="0 0 302.174 47.145">
  <defs>
    <clipPath id="clip-path">
      <rect id="Rectángulo_41" data-name="Rectángulo 41" width="302.174" height="47.145" fill="#f5f0ec"/>
    </clipPath>
  </defs>
  <path id="Trazado_32" data-name="Trazado 32" d="M194.43,38.919h-.081l-5.1-20.172H182.13l7.616,25.759h8.683l7.5-25.759h-6.27Z" transform="translate(-116.611 -12.003)" fill="#f5f0ec"/>
  <rect id="Rectángulo_36" data-name="Rectángulo 36" width="6.11" height="19.857" transform="translate(90.113 12.646)" fill="#f5f0ec"/>
  <g id="Grupo_44" data-name="Grupo 44">
    <g id="Grupo_43" data-name="Grupo 43" clip-path="url(#clip-path)">
      <path id="Trazado_33" data-name="Trazado 33" d="M290.063,44.189c-1.488-.844-3.216-1.085-5.668-1.326a44.694,44.694,0,0,1-4.9-.6,1.64,1.64,0,0,1-1.447-1.769c0-1.367,1.206-2.291,3.939-2.291,3.014,0,3.979,1.085,4.019,3.175h5.386c0-4.623-2.974-7.115-9.486-7.115-5.507,0-9.928,2.371-9.928,6.672a4.781,4.781,0,0,0,1.889,3.9c1.205.844,3.416,1.286,6.27,1.527a37.089,37.089,0,0,1,4.623.562c1.045.241,1.407.8,1.407,1.528,0,1.447-1.126,2.372-4.3,2.372-3.5,0-4.422-1.206-4.422-3.055h-5.467c0,4.02,2.934,6.994,9.928,6.994,6.793,0,10.37-2.452,10.37-6.633a4.513,4.513,0,0,0-2.211-3.939" transform="translate(-174.136 -21.936)" fill="#f5f0ec"/>
      <rect id="Rectángulo_37" data-name="Rectángulo 37" width="6.11" height="19.857" transform="translate(119.587 12.646)" fill="#f5f0ec"/>
      <path id="Trazado_34" data-name="Trazado 34" d="M367.571,24.355c-3.537,0-6.069,1.567-6.833,4.18h-.08c.04-.965.121-2.612.121-3.537V18.789h-6.11V44.532h6.11c-.081-.964-.161-2.572-.2-3.738h.04c.723,2.533,3.3,4.06,6.913,4.06,5.668,0,9.044-3.939,9.044-10.652,0-6.191-3.336-9.848-9-9.848m-1.608,15.836c-3.256,0-5.185-1.768-5.185-4.783v-.925c0-3.416,1.929-5.467,5.145-5.467,2.854,0,4.542,2.009,4.542,5.386,0,3.658-1.688,5.788-4.5,5.788" transform="translate(-227.081 -12.03)" fill="#f5f0ec"/>
      <rect id="Rectángulo_38" data-name="Rectángulo 38" width="6.109" height="25.759" transform="translate(150.863 6.744)" fill="#f5f0ec"/>
      <path id="Trazado_35" data-name="Trazado 35" d="M450.968,34.261c-6.712,0-10.812,3.9-10.812,10.451,0,6.31,4.1,10.049,10.692,10.049,5.668,0,9.446-2.653,9.566-7.2h-5.386c-.161,1.929-1.688,2.773-4.06,2.773-2.733,0-4.381-1.407-4.662-4.662h14.109V43.948c0-6.512-3.9-9.687-9.446-9.687m4.06,8.16h-8.562c.483-2.613,1.929-3.738,4.5-3.738,2.533,0,4.06,1.166,4.06,3.417Z" transform="translate(-281.816 -21.936)" fill="#f5f0ec"/>
      <path id="Trazado_36" data-name="Trazado 36" d="M540.553,28.333H529.218V18.787h-6.592V44.532h6.592V33.478h11.335V44.532h6.592V18.787h-6.592Z" transform="translate(-334.618 -12.029)" fill="#f5f0ec"/>
      <path id="Trazado_37" data-name="Trazado 37" d="M605.657,34.261c-6.029,0-9.566,2.371-9.566,6.391a9.941,9.941,0,0,0,.08,1.166H601.8a8.314,8.314,0,0,1-.04-.844c0-1.608,1.326-2.572,3.618-2.572,2.813,0,4.18.964,4.18,3.376V43.1h-6.472c-5.265,0-7.6,2.371-7.6,5.627,0,4.02,3.215,6.03,7.838,6.03,3.617,0,5.869-1.528,6.472-4.342h.04c0,1.206-.161,3.015-.282,4.02h6.11V42.38c0-5.305-3.7-8.119-10.009-8.119m3.9,12.541c0,2.412-1.849,3.818-5.024,3.818-2.211,0-3.537-.8-3.537-2.331,0-1.125,1.005-1.889,2.653-1.889h5.909Z" transform="translate(-381.269 -21.936)" fill="#f5f0ec"/>
      <path id="Trazado_38" data-name="Trazado 38" d="M669.394,34.261c-4.5,0-6.833,1.808-7.838,5.587h-.08l.241-5.266h-6.11V54.439h6.11V44.993c0-3.778,1.929-5.668,5.145-5.668,2.693,0,4.3,1.246,4.3,4.06V54.439h6.11V42.018c0-5.145-3.095-7.757-7.878-7.757" transform="translate(-419.761 -21.936)" fill="#f5f0ec"/>
      <path id="Trazado_39" data-name="Trazado 39" d="M734.653,27.584h-.04c-.884-2.05-2.975-3.256-6.19-3.256-5.788,0-9.566,4.02-9.566,10.089,0,6.23,3.578,10.411,9.326,10.411,3.617,0,5.868-1.769,6.632-4.583h.081c-.121,2.131-.2,3.859-.241,4.261h6.109V18.747h-6.109Zm0,7.154c0,3.256-2.01,5.426-5.065,5.426-2.813,0-4.662-2.331-4.662-5.708,0-3.3,1.889-5.467,4.743-5.467a4.634,4.634,0,0,1,4.984,4.783Z" transform="translate(-460.257 -12.003)" fill="#f5f0ec"/>
      <path id="Trazado_40" data-name="Trazado 40" d="M801.647,44.189c-1.487-.844-3.216-1.085-5.667-1.326a44.707,44.707,0,0,1-4.9-.6,1.64,1.64,0,0,1-1.447-1.769c0-1.367,1.206-2.291,3.939-2.291,3.015,0,3.979,1.085,4.019,3.175h5.386c0-4.623-2.974-7.115-9.486-7.115-5.507,0-9.928,2.371-9.928,6.672a4.782,4.782,0,0,0,1.889,3.9c1.206.844,3.417,1.286,6.271,1.527a37.092,37.092,0,0,1,4.622.562c1.045.241,1.407.8,1.407,1.528,0,1.447-1.126,2.372-4.3,2.372-3.5,0-4.422-1.206-4.422-3.055h-5.466c0,4.02,2.934,6.994,9.928,6.994,6.793,0,10.37-2.452,10.37-6.633a4.512,4.512,0,0,0-2.211-3.939" transform="translate(-501.684 -21.936)" fill="#f5f0ec"/>
      <rect id="Rectángulo_39" data-name="Rectángulo 39" width="5.957" height="3.42" transform="translate(119.587 6.844)" fill="#f5f0ec"/>
      <rect id="Rectángulo_40" data-name="Rectángulo 40" width="5.957" height="3.42" transform="translate(90.19 6.844)" fill="#f5f0ec"/>
      <path id="Trazado_41" data-name="Trazado 41" d="M0,0,24.7,47.145H40.3L15.594,0Z" transform="translate(0 0)" fill="#f5f0ec"/>
      <path id="Trazado_42" data-name="Trazado 42" d="M83.469,16.709H72.3l5.734,10.829h5.436V37.817l2.1,4.106h11.6V5.261H83.469Z" transform="translate(-46.29 -3.368)" fill="#f5f0ec"/>
    </g>
  </g>
</svg>
